<svg width="624" height="191" viewBox="0 0 624 191" fill="none" xmlns="http://www.w3.org/2000/svg">
<path d="M266.801 86.0984C262.501 91.1384 256.212 93.6353 247.935 93.6353C239.659 93.6353 233.37 91.1384 229.07 86.0984C224.77 81.0583 222.643 74.2149 222.643 65.5682V35.7439C222.643 27.0972 224.816 20.2538 229.162 15.2137C233.509 10.1737 239.797 7.67676 248.074 7.67676C256.351 7.67676 262.501 10.1737 266.801 15.2137C271.101 20.2538 273.228 27.0972 273.228 35.7439H259.726C259.726 26.1724 255.842 21.3636 248.028 21.3636C240.213 21.3636 236.237 26.1724 236.237 35.7439V65.5682C236.237 75.1397 240.121 79.9485 247.935 79.9485C255.75 79.9485 259.726 75.1397 259.726 65.5682H273.228C273.228 74.2149 271.101 81.0583 266.801 86.0984Z" fill="black"/>
<path d="M288.441 32.0888C292.417 27.696 298.244 25.4766 305.966 25.4766C313.687 25.4766 319.514 27.696 323.49 32.0888C327.467 36.4815 329.455 42.955 329.455 51.463V63.8088H295.978V69.3113C295.978 73.4728 296.764 76.4783 298.336 78.3741C299.908 80.2237 302.451 81.1947 305.919 81.1947C308.925 81.1947 311.329 80.4087 313.179 78.8365C314.982 77.2644 315.907 75.2299 315.907 72.733H329.409C329.409 79.0677 327.282 84.154 323.074 87.9919C318.866 91.8297 313.133 93.7255 305.919 93.7255C290.244 93.7255 282.43 85.0788 282.43 67.7391V51.5092C282.43 43.0012 284.418 36.574 288.394 32.135L288.441 32.0888ZM295.978 53.0813L315.953 52.7114V49.8446C315.953 41.9377 312.624 37.9611 305.966 37.9611C299.307 37.9611 295.978 41.9377 295.978 49.8446V53.0813Z" fill="black"/>
<path d="M377.129 40.4598C373.708 40.4598 371.165 41.1996 369.454 42.7255C367.743 44.2051 366.726 46.6558 366.402 49.985V79.948H385.73V92.4325H340.092V79.948H352.854V39.8586H340.092V27.2354H363.674L365.015 37.4542C367.512 30.6108 372.691 27.2354 380.459 27.2354H389.938V40.4598H377.037H377.129Z" fill="black"/>
<path d="M399.418 39.8113V27.188H410.145L411.949 8.69238H423.647V27.188H443.854V39.8113H423.647V69.7743C423.647 72.9186 424.48 75.4155 426.144 77.2188C427.809 79.0221 430.121 79.9007 433.126 79.9007H447.137V92.3852H433.496C417.914 92.3852 410.145 84.8945 410.145 69.913V39.8113H399.418Z" fill="black"/>
<path d="M490.181 79.9007H509.786V92.3852H456.611V79.9007H476.679V39.8113H461.698V27.188H490.181V79.9007ZM490.181 2.72754V18.8188H476.679V2.72754H490.181Z" fill="black"/>
<path d="M542.618 12.4846C536.284 12.4846 533.139 15.8138 533.139 22.4722V27.2349H566.709V92.4321H553.207V39.8582H533.139V92.4321H519.637V39.8582H511.592V27.2349H519.637V22.4722C519.637 14.7965 521.533 9.15535 525.279 5.50246C529.07 1.84956 534.896 0 542.85 0H566.709V12.4846H542.618Z" fill="black"/>
<path d="M584.328 63.1624V50.4004H615.817V63.1624H584.328Z" fill="black"/>
<path d="M266.801 182.505C262.501 187.545 256.212 190.042 247.935 190.042C239.659 190.042 233.37 187.545 229.07 182.505C224.77 177.465 222.643 170.621 222.643 161.974V132.15C222.643 123.503 224.816 116.66 229.162 111.62C233.509 106.58 239.797 104.083 248.074 104.083C256.351 104.083 262.501 106.58 266.801 111.62C271.101 116.66 273.228 123.503 273.228 132.15H259.726C259.726 122.579 255.842 117.77 248.028 117.77C240.213 117.77 236.237 122.579 236.237 132.15V161.974C236.237 171.546 240.121 176.355 247.935 176.355C255.75 176.355 259.726 171.546 259.726 161.974H273.228C273.228 170.621 271.101 177.465 266.801 182.505Z" fill="black"/>
<path d="M332.001 177.234H334.452V188.84H330.059C322.846 188.84 318.13 186.158 315.956 180.841C313.367 186.991 308.373 190.089 300.975 190.089C294.409 190.089 289.369 187.869 285.901 183.43C282.433 178.991 280.676 172.564 280.676 164.149V147.919C280.676 139.503 282.433 133.076 285.901 128.637C289.369 124.198 294.409 121.979 300.975 121.979C308.604 121.979 313.644 125.169 316.049 131.596L317.159 123.736H327.978V172.703C327.978 175.801 329.319 177.327 332.001 177.327V177.234ZM304.396 176.957C307.541 176.957 310.038 176.125 311.841 174.506C313.644 172.888 314.523 170.853 314.523 168.449V143.341C314.523 140.937 313.644 138.948 311.841 137.33C310.038 135.758 307.587 134.972 304.396 134.972C297.599 134.972 294.178 138.717 294.178 146.208V165.675C294.178 173.165 297.599 176.911 304.396 176.911V176.957Z" fill="black"/>
<path d="M340.508 136.268V123.645H351.235L353.039 105.149H364.737V123.645H384.944V136.268H364.737V166.231C364.737 169.376 365.57 171.873 367.234 173.676C368.899 175.479 371.211 176.358 374.216 176.358H388.227V188.842H374.586C359.003 188.842 351.235 181.352 351.235 166.37V136.268H340.508Z" fill="black"/>
<path d="M431.271 176.357H450.876V188.841H397.701V176.357H417.769V136.267H402.787V123.644H431.271V176.357ZM431.271 99.1836V115.275H417.769V99.1836H431.271Z" fill="black"/>
<path d="M500.078 183.476C496.055 187.869 490.137 190.088 482.276 190.088C474.415 190.088 468.45 187.869 464.474 183.476C460.451 179.084 458.463 172.61 458.463 164.102V147.872C458.463 139.364 460.451 132.937 464.474 128.498C468.497 124.105 474.415 121.886 482.276 121.886C490.137 121.886 496.102 124.105 500.078 128.498C504.101 132.891 506.089 139.364 506.089 147.872V164.102C506.089 172.61 504.101 179.037 500.078 183.476ZM482.276 177.604C489.166 177.604 492.634 173.674 492.634 165.72V146.254C492.634 138.347 489.166 134.37 482.276 134.37C475.386 134.37 471.918 138.347 471.918 146.254V165.72C471.918 173.627 475.386 177.604 482.276 177.604Z" fill="black"/>
<path d="M546.64 121.747C552.558 121.747 557.09 123.921 560.188 128.313C563.332 132.706 564.858 138.995 564.858 147.225V188.794H551.356V147.225C551.356 139.087 548.027 134.972 541.368 134.972C537.947 134.972 535.45 135.943 533.831 137.885C532.213 139.827 531.381 142.925 531.381 147.179V188.748H517.879V123.551H528.699L529.809 131.689C532.953 125.03 538.548 121.701 546.594 121.701L546.64 121.747Z" fill="black"/>
<path d="M600.412 190.09C592.968 190.09 587.095 188.194 582.887 184.403C578.68 180.611 576.553 175.386 576.553 168.728H590.054C590.054 171.641 591.072 173.906 593.153 175.525C595.233 177.143 597.823 177.975 601.013 177.975C603.788 177.975 606.007 177.328 607.718 176.126C609.429 174.877 610.261 173.074 610.261 170.762C610.261 167.34 608.088 164.982 603.695 163.641L592.644 160.266C582.841 157.26 577.94 151.064 577.94 141.678C577.94 135.435 579.882 130.58 583.72 127.112C587.558 123.644 593.014 121.934 600.089 121.934C607.533 121.934 613.22 123.783 617.105 127.482C620.989 131.181 622.931 136.037 622.931 142.048H609.429C609.429 139.551 608.596 137.609 606.886 136.175C605.175 134.742 602.909 134.048 600.089 134.048C597.592 134.048 595.511 134.649 593.892 135.852C592.274 137.054 591.442 138.718 591.442 140.799C591.442 143.943 593.892 146.302 598.747 147.781L609.105 150.787C614.145 152.266 617.844 154.578 620.249 157.723C622.653 160.867 623.856 165.028 623.856 170.254C623.856 176.681 621.867 181.582 617.891 185.004C613.914 188.425 608.134 190.136 600.505 190.136L600.412 190.09Z" fill="black"/>
<path d="M168.542 10.0332H7.99942C3.56047 10.0332 0 13.6861 0 18.2638V106.211C0 110.465 1.89592 114.487 5.1789 117.077L79.9938 177.095C84.8489 180.979 91.6923 180.979 96.5474 177.095L171.362 117.077C174.599 114.487 176.541 110.465 176.541 106.211V18.2638C176.541 13.7323 172.981 10.0332 168.542 10.0332ZM79.9938 129.284L34.8182 92.0614L49.2909 73.5658L76.8496 96.2692L124.013 38.5165L141.723 53.7754L79.9938 129.33V129.284Z" fill="black"/>
</svg>
