<svg width="617" height="191" viewBox="0 0 617 191" fill="none" xmlns="http://www.w3.org/2000/svg">
<path d="M259.125 86.0984C254.825 91.1385 248.536 93.6355 240.26 93.6355C231.983 93.6355 225.694 91.1385 221.394 86.0984C217.094 81.0584 214.967 74.215 214.967 65.5683V35.744C214.967 27.0972 217.14 20.2538 221.487 15.2138C225.833 10.1737 232.122 7.67676 240.398 7.67676C248.675 7.67676 254.825 10.1737 259.125 15.2138C263.426 20.2538 265.553 27.0972 265.553 35.744H252.051C252.051 26.1725 248.166 21.3636 240.352 21.3636C232.538 21.3636 228.561 26.1725 228.561 35.744V65.5683C228.561 75.1398 232.445 79.9486 240.26 79.9486C248.074 79.9486 252.051 75.1398 252.051 65.5683H265.553C265.553 74.215 263.426 81.0584 259.125 86.0984Z" fill="black"/>
<path d="M280.763 32.0887C284.74 27.696 290.566 25.4766 298.288 25.4766C306.009 25.4766 311.836 27.696 315.812 32.0887C319.789 36.4814 321.777 42.9549 321.777 51.4629V63.8089H288.3V69.3113C288.3 73.4728 289.086 76.4784 290.658 78.3742C292.23 80.2237 294.773 81.1948 298.241 81.1948C301.247 81.1948 303.651 80.4087 305.501 78.8366C307.304 77.2644 308.229 75.2299 308.229 72.733H321.731C321.731 79.0677 319.604 84.1541 315.396 87.992C311.188 91.8298 305.455 93.7256 298.241 93.7256C282.566 93.7256 274.752 85.0789 274.752 67.7392V51.5092C274.752 43.0012 276.74 36.574 280.717 32.135L280.763 32.0887ZM288.3 53.0813L308.275 52.7115V49.8447C308.275 41.9378 304.946 37.9612 298.288 37.9612C291.629 37.9612 288.3 41.9378 288.3 49.8447V53.0813Z" fill="black"/>
<path d="M369.454 40.4598C366.032 40.4598 363.489 41.1996 361.778 42.7255C360.067 44.2051 359.05 46.6559 358.726 49.9851V79.9479H378.054V92.4326H332.416V79.9479H345.178V39.8587H332.416V27.2354H355.998L357.339 37.4542C359.836 30.6108 365.015 27.2354 372.783 27.2354H382.262V40.4598H369.361H369.454Z" fill="black"/>
<path d="M391.74 39.8114V27.188H402.468L404.271 8.69238H415.969V27.188H436.176V39.8114H415.969V69.7744C415.969 72.9187 416.802 75.4155 418.466 77.2188C420.131 79.0222 422.443 79.9008 425.448 79.9008H439.459V92.3853H425.818C410.236 92.3853 402.468 84.8946 402.468 69.9131V39.8114H391.74Z" fill="black"/>
<path d="M482.505 79.9007H502.111V92.3852H448.936V79.9007H469.003V39.8113H454.022V27.1879H482.505V79.9007ZM482.505 2.72754V18.8187H469.003V2.72754H482.505Z" fill="black"/>
<path d="M534.942 12.4845C528.608 12.4845 525.463 15.8137 525.463 22.4722V27.2348H559.033V92.432H545.531V39.8581H525.463V92.432H511.962V39.8581H503.916V27.2348H511.962V22.4722C511.962 14.7965 513.857 9.15522 517.603 5.50233C521.394 1.84944 527.221 0 535.174 0H559.033V12.4845H534.942Z" fill="black"/>
<path d="M576.652 63.2103V50.4482H608.141V63.2103H576.652Z" fill="black"/>
<path d="M259.125 182.552C254.825 187.592 248.536 190.089 240.26 190.089C231.983 190.089 225.694 187.592 221.394 182.552C217.094 177.512 214.967 170.669 214.967 162.022V132.198C214.967 123.551 217.14 116.708 221.487 111.668C225.833 106.628 232.122 104.131 240.398 104.131C248.675 104.131 254.825 106.628 259.125 111.668C263.426 116.708 265.553 123.551 265.553 132.198H252.051C252.051 122.627 248.166 117.818 240.352 117.818C232.538 117.818 228.561 122.627 228.561 132.198V162.022C228.561 171.594 232.445 176.403 240.26 176.403C248.074 176.403 252.051 171.594 252.051 162.022H265.553C265.553 170.669 263.426 177.512 259.125 182.552Z" fill="black"/>
<path d="M324.325 177.234H326.776V188.84H322.383C315.17 188.84 310.454 186.159 308.28 180.841C305.691 186.991 300.697 190.089 293.299 190.089C286.733 190.089 281.693 187.869 278.225 183.43C274.757 178.991 273 172.564 273 164.149V147.919C273 139.503 274.757 133.076 278.225 128.637C281.693 124.198 286.733 121.979 293.299 121.979C300.929 121.979 305.968 125.169 308.373 131.596L309.483 123.736H320.303V172.703C320.303 175.801 321.643 177.327 324.325 177.327V177.234ZM296.721 176.957C299.865 176.957 302.362 176.125 304.165 174.506C305.968 172.888 306.847 170.853 306.847 168.449V143.341C306.847 140.937 305.968 138.948 304.165 137.33C302.362 135.758 299.911 134.972 296.721 134.972C289.924 134.972 286.502 138.717 286.502 146.208V165.675C286.502 173.165 289.924 176.911 296.721 176.911V176.957Z" fill="black"/>
<path d="M332.83 136.265V123.642H343.558L345.361 105.146H357.059V123.642H377.266V136.265H357.059V166.228C357.059 169.373 357.892 171.87 359.556 173.673C361.221 175.476 363.533 176.355 366.538 176.355H380.549V188.839H366.908C351.326 188.839 343.558 181.349 343.558 166.367V136.265H332.83Z" fill="black"/>
<path d="M423.595 143.898V176.358H443.2V188.842H390.025V176.358H410.093V136.268H395.112V123.645H423.595V143.898ZM423.595 99.1846V115.276H410.093V99.1846H423.595Z" fill="black"/>
<path d="M492.4 183.476C488.378 187.869 482.459 190.088 474.598 190.088C466.737 190.088 460.773 187.869 456.796 183.476C452.773 179.084 450.785 172.61 450.785 164.102V147.872C450.785 139.364 452.773 132.937 456.796 128.498C460.819 124.105 466.737 121.886 474.598 121.886C482.459 121.886 488.424 124.105 492.4 128.498C496.423 132.891 498.411 139.364 498.411 147.872V164.102C498.411 172.61 496.423 179.037 492.4 183.476ZM474.598 177.604C481.488 177.604 484.956 173.674 484.956 165.721V146.254C484.956 138.347 481.488 134.37 474.598 134.37C467.709 134.37 464.241 138.347 464.241 146.254V165.721C464.241 173.627 467.709 177.604 474.598 177.604Z" fill="black"/>
<path d="M538.962 121.794C544.88 121.794 549.412 123.967 552.51 128.36C555.654 132.753 557.18 139.041 557.18 147.272V188.841H543.678V147.272C543.678 139.134 540.349 135.019 533.691 135.019C530.269 135.019 527.772 135.99 526.154 137.932C524.535 139.874 523.703 142.972 523.703 147.226V188.795H510.201V123.598H521.021L522.131 131.736C525.275 125.077 530.87 121.748 538.916 121.748L538.962 121.794Z" fill="black"/>
<path d="M592.736 190.09C585.292 190.09 579.419 188.194 575.212 184.403C571.004 180.611 568.877 175.386 568.877 168.728H582.379C582.379 171.641 583.396 173.906 585.477 175.525C587.557 177.143 590.147 177.975 593.337 177.975C596.112 177.975 598.331 177.328 600.042 176.126C601.753 174.877 602.585 173.074 602.585 170.762C602.585 167.34 600.412 164.982 596.019 163.641L584.968 160.266C575.165 157.26 570.264 151.064 570.264 141.678C570.264 135.435 572.206 130.58 576.044 127.112C579.882 123.644 585.338 121.934 592.413 121.934C599.857 121.934 605.545 123.783 609.429 127.482C613.313 131.181 615.255 136.037 615.255 142.048H601.753C601.753 139.551 600.921 137.609 599.21 136.175C597.499 134.742 595.233 134.048 592.413 134.048C589.916 134.048 587.835 134.649 586.217 135.851C584.598 137.054 583.766 138.718 583.766 140.799C583.766 143.943 586.217 146.302 591.072 147.781L601.429 150.787C606.469 152.266 610.169 154.578 612.573 157.723C614.977 160.867 616.18 165.028 616.18 170.253C616.18 176.681 614.191 181.582 610.215 185.004C606.238 188.425 600.458 190.136 592.829 190.136L592.736 190.09Z" fill="black"/>
<path d="M0 187.268V2.82031H168.865V187.268L84.4326 139.781L0 187.268Z" fill="black"/>
<path d="M122.769 110.464V79.669C122.769 75.1376 120.365 70.9299 116.481 68.618L90.9568 53.4977C86.934 51.0932 81.894 51.0932 77.8711 53.4977L52.3472 68.618C48.4631 70.9299 46.0586 75.1376 46.0586 79.669V110.464C46.0586 114.996 48.4631 119.204 52.3472 121.516L77.8711 136.636C81.894 139.04 86.934 139.04 90.9568 136.636L116.481 121.516C120.365 119.204 122.769 114.996 122.769 110.464Z" fill="#C6C6C6"/>
</svg>
