<svg width="605" height="191" viewBox="0 0 605 191" fill="none" xmlns="http://www.w3.org/2000/svg">
<path d="M157.676 51.6484C157.676 70.8839 151.156 88.5473 140.243 102.419C125.817 120.822 103.668 132.567 78.8378 132.567C35.2805 132.567 0 96.3154 0 51.6484H41.9852C41.9852 72.5485 58.4926 89.472 78.8378 89.472C99.183 89.472 115.69 72.5485 115.69 51.6484H157.676Z" fill="black"/>
<path d="M106.576 20.299V51.6491C102.553 51.1405 96.6811 49.892 90.2538 46.6091C85.26 44.0659 81.4221 41.0603 78.7865 38.6096C76.1508 41.0603 72.3593 44.0659 67.3192 46.6091C60.9382 49.892 55.0658 51.1405 51.043 51.6491V20.299C55.0658 18.6344 59.9672 16.1374 65.146 12.4846C71.1571 8.23055 75.6422 3.69913 78.8327 0C81.977 3.69913 86.4622 8.23055 92.5195 12.4846C97.6983 16.1374 102.6 18.6344 106.623 20.299H106.576Z" fill="black"/>
<path d="M106.576 156.289V187.639C102.553 187.131 96.6811 185.882 90.2538 182.599C85.26 180.056 81.4221 177.051 78.7865 174.6C76.1508 177.051 72.3593 180.056 67.3192 182.599C60.9382 185.882 55.0658 187.131 51.043 187.639V156.289C55.0658 154.625 59.9672 152.128 65.146 148.475C71.1571 144.221 75.6422 139.689 78.8327 135.99C81.977 139.689 86.4622 144.221 92.5195 148.475C97.6983 152.128 102.6 154.625 106.623 156.289H106.576Z" fill="black"/>
<path d="M247.936 86.1433C243.636 91.1834 237.347 93.6802 229.07 93.6802C220.793 93.6802 214.505 91.1834 210.205 86.1433C205.904 81.1032 203.777 74.2598 203.777 65.6131V35.7889C203.777 27.1422 205.951 20.2988 210.297 15.2587C214.644 10.2186 220.932 7.72168 229.209 7.72168C237.486 7.72168 243.636 10.2186 247.936 15.2587C252.236 20.2988 254.363 27.1422 254.363 35.7889H240.861C240.861 26.2174 236.977 21.4085 229.163 21.4085C221.348 21.4085 217.372 26.2174 217.372 35.7889V65.6131C217.372 75.1846 221.256 79.9935 229.07 79.9935C236.885 79.9935 240.861 75.1846 240.861 65.6131H254.363C254.363 74.2598 252.236 81.1032 247.936 86.1433Z" fill="black"/>
<path d="M269.618 32.0888C273.595 27.6961 279.421 25.4766 287.143 25.4766C294.865 25.4766 300.691 27.6961 304.668 32.0888C308.644 36.4815 310.633 42.955 310.633 51.463V63.8089H277.155V69.3113C277.155 73.4728 277.942 76.4784 279.514 78.3742C281.086 80.2237 283.629 81.1947 287.097 81.1947C290.103 81.1947 292.507 80.4087 294.357 78.8366C296.16 77.2644 297.085 75.2299 297.085 72.733H310.587C310.587 79.0677 308.459 84.1541 304.252 87.9919C300.044 91.8298 294.31 93.7256 287.097 93.7256C271.422 93.7256 263.607 85.0788 263.607 67.7391V51.5092C263.607 43.0012 265.596 36.574 269.572 32.135L269.618 32.0888ZM277.155 53.0813L297.131 52.7114V49.8446C297.131 41.9377 293.802 37.9611 287.143 37.9611C280.485 37.9611 277.155 41.9377 277.155 49.8446V53.0813Z" fill="black"/>
<path d="M358.309 40.4597C354.887 40.4597 352.344 41.1996 350.633 42.7255C348.922 44.2051 347.905 46.6558 347.582 49.985V79.9479H366.91V92.4326H321.271V79.9479H334.033V39.8586H321.271V27.2354H344.853L346.194 37.4542C348.691 30.6108 353.87 27.2354 361.638 27.2354H371.117V40.4597H358.217H358.309Z" fill="black"/>
<path d="M380.551 39.8592V27.2359H391.278L393.082 8.74023H404.78V27.2359H424.987V39.8592H404.78V69.8221C404.78 72.9664 405.613 75.4633 407.277 77.2666C408.942 79.0699 411.254 79.9485 414.259 79.9485H428.27V92.4331H414.629C399.047 92.4331 391.278 84.9424 391.278 69.9609V39.8592H380.551Z" fill="black"/>
<path d="M471.315 79.9476H490.921V92.4322H437.746V79.9476H457.814V39.8582H442.832V27.235H471.315V79.9476ZM471.315 2.77441V18.8657H457.814V2.77441H471.315Z" fill="black"/>
<path d="M523.753 12.4846C517.418 12.4846 514.274 15.8138 514.274 22.4722V27.2349H547.844V92.4321H534.342V39.8581H514.274V92.4321H500.772V39.8581H492.727V27.2349H500.772V22.4722C500.772 14.7965 502.668 9.15536 506.413 5.50247C510.205 1.84958 516.031 0 523.984 0H547.844V12.4846H523.753Z" fill="black"/>
<path d="M565.508 63.2092V50.4473H596.997V63.2092H565.508Z" fill="black"/>
<path d="M247.936 182.552C243.636 187.592 237.347 190.089 229.07 190.089C220.793 190.089 214.505 187.592 210.205 182.552C205.904 177.512 203.777 170.669 203.777 162.022V132.198C203.777 123.551 205.951 116.708 210.297 111.668C214.644 106.628 220.932 104.131 229.209 104.131C237.486 104.131 243.636 106.628 247.936 111.668C252.236 116.708 254.363 123.551 254.363 132.198H240.861C240.861 122.626 236.977 117.818 229.163 117.818C221.348 117.818 217.372 122.626 217.372 132.198V162.022C217.372 171.594 221.256 176.403 229.07 176.403C236.885 176.403 240.861 171.594 240.861 162.022H254.363C254.363 170.669 252.236 177.512 247.936 182.552Z" fill="black"/>
<path d="M313.181 177.234H315.632V188.84H311.239C304.026 188.84 299.309 186.158 297.136 180.841C294.547 186.991 289.553 190.089 282.155 190.089C275.589 190.089 270.548 187.869 267.081 183.43C263.613 178.991 261.855 172.564 261.855 164.149V147.919C261.855 139.503 263.613 133.076 267.081 128.637C270.548 124.198 275.589 121.979 282.155 121.979C289.784 121.979 294.824 125.169 297.229 131.596L298.338 123.736H309.158V172.703C309.158 175.801 310.499 177.327 313.181 177.327V177.234ZM285.53 177.003C288.674 177.003 291.171 176.171 292.974 174.552C294.778 172.934 295.656 170.9 295.656 168.495V143.387C295.656 140.983 294.778 138.994 292.974 137.376C291.171 135.804 288.72 135.018 285.53 135.018C278.733 135.018 275.311 138.763 275.311 146.254V165.721C275.311 173.211 278.733 176.957 285.53 176.957V177.003Z" fill="black"/>
<path d="M321.688 136.267V123.644H332.415L334.218 105.148H345.917V123.644H366.123V136.267H345.917V166.23C345.917 169.375 346.749 171.871 348.414 173.675C350.078 175.478 352.39 176.357 355.396 176.357H369.406V188.841H355.766C340.183 188.841 332.415 181.351 332.415 166.369V136.267H321.688Z" fill="black"/>
<path d="M412.451 176.357H432.056V188.841H378.881V176.357H398.949V136.267H383.967V123.644H412.451V176.357ZM412.451 99.1836V115.275H398.949V99.1836H412.451Z" fill="black"/>
<path d="M481.258 183.476C477.235 187.869 471.317 190.088 463.456 190.088C455.595 190.088 449.63 187.869 445.654 183.476C441.631 179.084 439.643 172.61 439.643 164.102V147.872C439.643 139.364 441.631 132.937 445.654 128.498C449.676 124.105 455.595 121.886 463.456 121.886C471.317 121.886 477.281 124.105 481.258 128.498C485.281 132.891 487.269 139.364 487.269 147.872V164.102C487.269 172.61 485.281 179.037 481.258 183.476ZM463.41 177.604C470.299 177.604 473.767 173.674 473.767 165.72V146.254C473.767 138.347 470.299 134.37 463.41 134.37C456.52 134.37 453.052 138.347 453.052 146.254V165.72C453.052 173.627 456.52 177.604 463.41 177.604Z" fill="black"/>
<path d="M527.772 121.794C533.691 121.794 538.222 123.967 541.32 128.36C544.465 132.753 545.991 139.041 545.991 147.272V188.841H532.489V147.272C532.489 139.134 529.159 135.019 522.501 135.019C519.079 135.019 516.582 135.99 514.964 137.932C513.346 139.874 512.513 142.972 512.513 147.226V188.795H499.012V123.598H509.832L510.941 131.736C514.085 125.077 519.68 121.748 527.726 121.748L527.772 121.794Z" fill="black"/>
<path d="M581.547 190.089C574.103 190.089 568.23 188.193 564.023 184.402C559.815 180.61 557.688 175.385 557.688 168.727H571.19C571.19 171.64 572.207 173.905 574.287 175.524C576.368 177.142 578.958 177.975 582.148 177.975C584.923 177.975 587.142 177.327 588.853 176.125C590.564 174.876 591.396 173.073 591.396 170.761C591.396 167.339 589.223 164.981 584.83 163.64L573.779 160.265C563.976 157.259 559.075 151.063 559.075 141.677C559.075 135.434 561.017 130.579 564.855 127.111C568.693 123.644 574.149 121.933 581.223 121.933C588.668 121.933 594.355 123.782 598.239 127.481C602.123 131.18 604.065 136.036 604.065 142.047H590.564C590.564 139.55 589.731 137.608 588.021 136.174C586.31 134.741 584.044 134.047 581.223 134.047C578.726 134.047 576.646 134.648 575.027 135.851C573.409 137.053 572.577 138.717 572.577 140.798C572.577 143.942 575.027 146.301 579.883 147.78L590.24 150.786C595.28 152.266 598.979 154.577 601.384 157.722C603.788 160.866 604.99 165.027 604.99 170.253C604.99 176.68 603.002 181.581 599.025 185.003C595.049 188.424 589.269 190.135 581.64 190.135L581.547 190.089Z" fill="black"/>
</svg>
